<?xml version="1.0" encoding="UTF-8" standalone="no"?>
<!-- Created with Inkscape (http://www.inkscape.org/) -->
<svg xmlns:dc="http://purl.org/dc/elements/1.1/" xmlns:cc="http://creativecommons.org/ns#" xmlns:rdf="http://www.w3.org/1999/02/22-rdf-syntax-ns#" xmlns:svg="http://www.w3.org/2000/svg" xmlns="http://www.w3.org/2000/svg" xmlns:sodipodi="http://sodipodi.sourceforge.net/DTD/sodipodi-0.dtd" xmlns:inkscape="http://www.inkscape.org/namespaces/inkscape" width="1149.2795" height="1007.4" id="svg4646" version="1.1" inkscape:version="0.48.0 r9654" sodipodi:docname="ULPGC.svg" inkscape:output_extension="org.inkscape.output.svg.inkscape">
  <defs id="defs4648">
    <inkscape:perspective sodipodi:type="inkscape:persp3d" inkscape:vp_x="0 : 526.18109 : 1" inkscape:vp_y="0 : 1000 : 0" inkscape:vp_z="744.09448 : 526.18109 : 1" inkscape:persp3d-origin="372.04724 : 350.78739 : 1" id="perspective4654"/>
    <inkscape:perspective id="perspective4641" inkscape:persp3d-origin="0.5 : 0.33333333 : 1" inkscape:vp_z="1 : 0.5 : 1" inkscape:vp_y="0 : 1000 : 0" inkscape:vp_x="0 : 0.5 : 1" sodipodi:type="inkscape:persp3d"/>
  </defs>
  <sodipodi:namedview id="base" pagecolor="#ffffff" bordercolor="#666666" borderopacity="1.0" inkscape:pageopacity="0.0" inkscape:pageshadow="2" inkscape:zoom="0.43781695" inkscape:cx="267.53501" inkscape:cy="531.6179" inkscape:document-units="px" inkscape:current-layer="layer1" showgrid="false" inkscape:window-width="1280" inkscape:window-height="962" inkscape:window-x="-8" inkscape:window-y="-8" inkscape:window-maximized="1" height="1052.36px" fit-margin-top="0" fit-margin-left="0" fit-margin-right="0" fit-margin-bottom="0"/>
  <metadata id="metadata4651">
    <rdf:RDF>
      <cc:Work rdf:about="">
        <dc:format>image/svg+xml</dc:format>
        <dc:type rdf:resource="http://purl.org/dc/dcmitype/StillImage"/>
        <dc:title/>
      </cc:Work>
    </rdf:RDF>
  </metadata>
  <g inkscape:label="Capa 1" inkscape:groupmode="layer" id="layer1" transform="translate(-38.065329,-20.024403)">
    <path inkscape:connector-curvature="0" id="path3970" d="m 49.429702,1014.3713 c 0.283662,-2.539 2.596686,-12.4655 5.140019,-22.05742 4.824225,-18.1961 7.164106,-27.2616 10.592527,-41.03822 4.434268,-17.81959 12.173418,-44.41639 26.121225,-89.7706 2.516131,-8.18197 5.359576,-17.64717 6.318611,-21.03267 0.959183,-3.38552 2.099917,-6.61726 2.535246,-7.18144 0.43517,-0.56527 4.1441,-11.18252 8.24208,-23.59624 6.63985,-20.11523 19.07028,-55.05343 21.53612,-60.53162 1.80549,-4.01129 6.34623,-15.4889 8.72657,-22.05811 3.71742,-10.25886 21.90509,-55.12521 25.24803,-62.28345 1.63606,-3.50365 2.97464,-6.63762 2.97464,-6.96492 0,-0.32786 1.58326,-4.15599 3.51829,-8.50702 1.93517,-4.35158 5.34787,-12.06607 7.58386,-17.14519 2.23602,-5.07855 6.16369,-13.61949 8.72817,-18.97954 2.56447,-5.3612 10.16972,-21.35376 16.90055,-35.53967 6.73089,-14.18649 15.61026,-31.9614 19.73193,-39.49951 4.12176,-7.53868 10.44716,-19.24637 14.05654,-26.01739 3.60935,-6.77103 8.52288,-15.54317 10.91897,-19.49339 2.39616,-3.94968 6.45904,-11.1051 9.02851,-15.90213 5.44942,-10.17235 19.30458,-33.2463 28.33751,-47.19308 3.47177,-5.36119 8.51639,-13.25996 11.21023,-17.55445 13.15261,-20.96768 24.20409,-36.90485 47.78221,-68.90525 41.68491,-56.57629 105.82023,-125.45213 148.96863,-159.97994 3.9499,-3.16052 10.87502,-8.80662 15.38918,-12.54601 9.84478,-8.15483 19.59227,-15.39449 42.69063,-31.70587 22.23668,-15.70371 65.42915,-40.763498 86.06625,-49.934723 5.36063,-2.382689 14.82503,-6.650619 21.03205,-9.484409 6.20691,-2.83379 14.74803,-6.422248 18.98005,-7.973952 4.23204,-1.552286 13.69644,-5.016937 21.03196,-7.700367 21.26358,-7.777231 62.88388,-19.644876 75.40745,-21.500726 2.53923,-0.378733 11.54194,-2.02261 20.00606,-3.657422 8.46406,-1.635375 29.47045,-4.415454 46.68076,-6.177457 25.87393,-2.649501 33.60049,-3.087609 44.62889,-2.533632 18.8641,0.947437 60.95704,6.400206 71.30357,9.236819 4.7963,1.314849 12.41395,3.186534 16.92812,4.159942 13.8894,2.994347 46.43066,14.602531 60.96696,21.746646 31.3015,15.385445 50.7782,29.331673 71.8356,51.436131 7.878,8.26903 15.8814,17.11297 17.7855,19.65224 6.1128,8.15202 13.7074,19.84783 16.6075,25.5759 1.5509,3.06386 3.4628,6.21252 4.2485,6.99883 0.7856,0.78576 1.4286,2.06613 1.4286,2.84509 0,0.77953 1.9034,5.01638 4.2299,9.41715 4.4014,8.32443 12.0436,28.87265 14.0407,37.7522 10.521,46.77871 10.4396,45.79965 11.1593,134.39895 0.3392,41.75671 0.2628,107.72131 -0.1685,146.58827 l -0.785,70.66724 -30.397,-0.66366 c -16.7183,-0.36743 -33.9088,-0.93329 -38.2011,-1.26398 -7.5481,-0.57999 -7.8265,-0.52006 -8.4873,1.81344 -3.5861,12.66529 -6.1716,25.31868 -8.9832,43.96417 -3.0432,20.1819 -3.3266,24.15136 -3.3321,46.68037 0,14.21417 0.4811,27.00832 1.1465,30.26552 0.6341,3.10343 1.6777,9.56751 2.3196,14.36284 0.6417,4.79703 2.0326,11.72182 3.0908,15.38995 1.0582,3.6676 2.2252,7.82246 2.5936,9.23344 0.368,1.41039 2.7035,7.71221 5.1895,14.00443 2.4862,6.29168 4.5201,11.87105 4.5201,12.39847 0,0.52572 2.3619,4.84396 5.2486,9.59238 2.8867,4.74842 5.6165,9.55734 6.0662,10.68507 0.4499,1.12889 3.0714,4.82248 5.826,8.20799 2.7547,3.38551 5.1779,6.61726 5.385,7.18143 1.1011,3.00055 17.1461,18.93433 24.983,24.8105 5.3548,4.01466 8.6594,7.15088 8.1122,7.69865 -0.9676,0.96721 -16.5609,5.27865 -25.3553,7.0107 -29.8093,5.86994 -31.657,6.13224 -64.635,9.19442 -16.7595,1.55566 -73.19675,1.26002 -90.28348,-0.46918 -13.83559,-1.40419 -46.75859,-7.00563 -59.50522,-10.12545 -24.59111,-6.01863 -43.7758,-11.75801 -56.84764,-17.0067 -3.05255,-1.22499 -16.4413,-7.59634 -29.75252,-14.15822 -44.80678,-22.0858 -73.3609,-44.56279 -111.89392,-88.07981 -4.79276,-5.41317 -9.02982,-10.90156 -14.59005,-18.9004 -27.39567,-39.41245 -38.91748,-61.17661 -55.40111,-104.64784 -6.36483,-16.78566 -10.08312,-28.38538 -17.21101,-53.69501 -2.29845,-8.16109 -3.07708,-8.33688 9.53202,2.14073 4.24418,3.52739 8.03826,6.41265 8.43109,6.41265 0.3923,0 4.02825,2.4946 8.07865,5.54207 4.05034,3.04915 9.02352,6.47482 11.0516,7.61386 2.0281,1.13906 7.73603,4.87787 12.68423,8.30747 4.94842,3.43074 9.35901,6.2374 9.80143,6.2374 0.44205,0 6.71718,3.61898 13.94361,8.04292 7.22653,4.42395 17.75593,10.51266 23.39869,13.52961 5.64277,3.01862 10.49033,5.77159 10.77248,6.11867 0.28206,0.34481 2.83204,1.61277 5.66661,2.81344 2.83447,1.2001 12.76064,5.84169 22.05793,10.31425 9.29731,4.47142 20.82856,9.52057 25.62486,11.21984 28.4635,10.08305 36.72209,12.7936 48.7327,15.9937 23.87902,6.36458 44.41515,8.90385 71.81657,8.87785 18.61273,0 20.09493,-0.16965 32.82201,-3.38777 l 13.3291,-3.36967 2.63966,-7.63197 c 6.09504,-17.62341 17.33671,-53.09526 19.97633,-63.03416 7.23613,-27.24574 14.69379,-58.79561 16.36918,-69.25175 0.6579,-4.10625 3.1391,-17.55446 4.6369,-25.13554 6.2592,-31.67705 9.8961,-76.72883 8.9032,-110.28997 -0.542,-18.33625 -2.9236,-40.39945 -4.8166,-44.62839 -0.5048,-1.12887 -1.8215,-6.43806 -2.9253,-11.79868 -1.1294,-5.48556 -3.6166,-13.09772 -5.6891,-17.41199 -2.02526,-4.2165 -3.68246,-8.22327 -3.68246,-8.90444 0,-0.68059 -0.64289,-1.8807 -1.42848,-2.66646 -0.78578,-0.78576 -2.68709,-3.93441 -4.22512,-6.99883 -4.9687,-9.89594 -16.60548,-23.08354 -26.15418,-29.63862 -12.10757,-8.31313 -40.571,-21.41991 -61.0406,-28.10839 -21.17772,-6.92026 -52.9172,-11.95189 -75.26252,-11.93154 -24.38732,0 -61.4878,4.39794 -82.22094,9.69809 -23.95718,6.1232 -54.5975,18.03948 -84.64099,32.91615 -30.28423,14.99598 -31.7208,15.83034 -62.4388,36.25477 -23.34068,15.52055 -29.43985,19.79581 -42.72119,29.945 -3.66775,2.80327 -9.64721,7.27979 -13.28766,9.94851 -3.64041,2.66817 -9.2034,7.16049 -12.3624,9.98128 -3.15872,2.82193 -14.03056,12.25714 -24.1594,20.96824 -10.12905,8.71109 -21.89701,19.33003 -26.15109,23.59684 -4.25423,4.26734 -14.11619,13.99143 -21.91553,21.60869 -16.86633,16.47364 -63.05027,65.84082 -72.45739,77.45125 -3.65368,4.50987 -9.82092,11.66586 -13.70486,15.9027 -3.88396,4.23626 -15.15659,17.85972 -25.05033,30.27345 -25.21192,31.63409 -27.35532,34.38026 -37.6383,48.21963 -5.0313,6.7716 -9.90221,13.06663 -10.82436,13.98975 -0.9221,0.92313 -5.4377,7.15542 -10.03483,13.85012 -4.59692,6.69473 -10.91159,15.63475 -14.03234,19.86707 -9.4621,12.83148 -24.37532,34.6318 -33.33751,48.73292 -4.66226,7.33574 -9.01702,13.79869 -9.67734,14.3634 -0.66025,0.5653 -4.70026,6.56526 -8.97774,13.33684 -4.27764,6.77159 -9.5953,15.0819 -11.81739,18.46685 -2.22205,3.38664 -5.02288,8.08249 -6.22429,10.43634 -2.00643,3.93272 -6.76993,11.52114 -18.2418,29.06373 -2.39866,3.6676 -7.9224,13.13164 -12.27501,21.03154 -4.35247,7.89934 -8.94302,15.74837 -10.20112,17.44141 -1.25802,1.69247 -4.98138,7.92534 -8.2742,13.85012 -3.29268,5.92479 -7.81352,14.00389 -10.04633,17.95411 -2.23264,3.94966 -7.64012,13.87557 -12.01645,22.05755 -4.37637,8.18197 -11.71573,21.80147 -16.30962,30.26553 -9.97646,18.38148 -40.677002,79.92779 -48.873738,97.9785 -3.20291,7.05311 -8.583516,19.0577 -11.956941,26.6749 -9.792809,22.11402 -9.081308,20.82182 -8.474358,15.38952 z" style="fill:#002f67;fill-opacity:1;display:inline"/>
  </g>
</svg>